<svg width="18" height="18" viewBox="0 0 18 18" fill="none" xmlns="http://www.w3.org/2000/svg">
<path d="M7.92537 12.0171C8.84477 12.7402 9.87142 13.321 11.0283 13.7381C11.1432 13.779 11.2658 13.7829 11.3884 13.7479C11.465 13.7264 11.534 13.6894 11.5953 13.6387L11.6872 13.5451L13.2425 11.5766C13.3191 11.4831 13.4187 11.4168 13.5337 11.3915C13.6486 11.3642 13.7712 11.3778 13.8784 11.4304L17.7169 13.3074C17.7935 13.3444 17.8548 13.399 17.9008 13.4691C17.9467 13.5393 17.9774 13.6192 17.9851 13.703C18.2226 16.5525 15.587 18.2423 13.0663 17.8233C11.3118 17.5368 9.64923 16.9443 8.07861 16.0477C6.03296 14.8802 4.0103 12.976 2.47031 10.8711C1.70415 9.82247 1.05292 8.72321 0.570237 7.64149C-0.0809987 6.16996 -0.172938 4.80563 0.286758 3.54265C0.539591 2.85074 0.960979 2.18806 1.55092 1.55852C1.94933 1.12973 2.79976 0.82373 3.51229 0.897794C3.97199 0.94652 4.37039 1.15117 4.55427 1.57996L5.10591 2.85853C5.45834 3.69467 5.79545 4.53471 6.11724 5.38255C6.16321 5.4839 6.15554 5.58525 6.10958 5.68465C5.78779 6.37461 5.35874 6.98466 4.8071 7.5148C4.7075 7.61031 4.64621 7.73699 4.62322 7.87343C4.6079 8.00986 4.63855 8.15019 4.7075 8.26713C5.60391 9.74841 6.66121 11.0172 7.92537 12.0171Z" fill="#353535"/>
</svg>
