<svg width="8" height="7" viewBox="0 0 8 7" fill="none" xmlns="http://www.w3.org/2000/svg">
<path fill-rule="evenodd" clip-rule="evenodd" d="M6.70424 0.207708C6.60291 0.321952 6.48513 0.454265 6.44251 0.501756C6.39988 0.549247 6.33251 0.62449 6.29279 0.668982C6.12249 0.859682 4.69121 2.46644 4.45173 2.73574C4.3818 2.81437 4.21896 2.99705 4.08985 3.14168C3.96074 3.28631 3.79036 3.47767 3.7112 3.56693C3.63206 3.65617 3.53248 3.76787 3.48992 3.81514C3.44736 3.86241 3.25644 4.07651 3.06567 4.2909L2.71882 4.68072L1.90559 3.82058C1.45832 3.3475 1.0883 2.96044 1.08333 2.96044C1.07836 2.96044 0.832576 3.21613 0.537147 3.52866L0 4.09688L1.3723 5.54844C2.12706 6.34679 2.74733 7 2.75067 7C2.75745 7 2.98588 6.74514 4.09027 5.50546C4.50672 5.03799 4.95122 4.53937 5.07807 4.39741C5.20491 4.25546 5.4387 3.99342 5.5976 3.81511C5.7565 3.63681 6.02058 3.34056 6.18445 3.15677C6.34831 2.97299 6.51895 2.78136 6.56364 2.73095C6.6948 2.58298 7.52764 1.64908 7.75834 1.39127C8.01305 1.10663 8.01023 1.11018 7.99361 1.09434C7.98673 1.08778 7.90798 1.00943 7.8186 0.920237C7.57635 0.678484 7.32138 0.42445 7.16403 0.268072C7.08707 0.191578 6.99535 0.0999672 6.96021 0.0644898C6.92508 0.0290218 6.89456 0 6.8924 0C6.89025 0 6.80558 0.0934638 6.70424 0.207708Z" fill="white"/>
</svg>
