<svg width="40" height="26" viewBox="0 0 40 26" fill="none" xmlns="http://www.w3.org/2000/svg">
<g style="mix-blend-mode:multiply" filter="url(#filter0_i_963_1099)">
<path d="M23.2464 14.3804V20.7717H16.7536V14.3804H11.884L20 6.3913L28.1159 14.3804H23.2464ZM31.9304 9.63489C30.8267 4.13837 25.9084 0 20 0C15.309 0 11.2348 2.62043 9.20579 6.43924C4.31999 6.96652 0.521729 11.025 0.521729 15.9783C0.521729 18.5209 1.54781 20.9594 3.37425 22.7573C5.2007 24.5552 7.67788 25.5652 10.2609 25.5652H31.3623C32.4281 25.5652 33.4835 25.3586 34.4681 24.9571C35.4528 24.5556 36.3475 23.9671 37.1011 23.2253C37.8548 22.4834 38.4526 21.6027 38.8605 20.6334C39.2683 19.6641 39.4782 18.6252 39.4782 17.5761C39.4782 13.3578 36.1507 9.93848 31.9304 9.63489Z" fill="#00000099"/>
</g>
<defs>
<filter id="filter0_i_963_1099" x="0.521729" y="0" width="38.9565" height="26.1739" filterUnits="userSpaceOnUse" color-interpolation-filters="sRGB">
<feFlood flood-opacity="0" result="BackgroundImageFix"/>
<feBlend mode="normal" in="SourceGraphic" in2="BackgroundImageFix" result="shape"/>
<feColorMatrix in="SourceAlpha" type="matrix" values="0 0 0 0 0 0 0 0 0 0 0 0 0 0 0 0 0 0 127 0" result="hardAlpha"/>
<feMorphology radius="0.608696" operator="erode" in="SourceAlpha" result="effect1_innerShadow_963_1099"/>
<feOffset dy="0.608696"/>
<feGaussianBlur stdDeviation="0.608696"/>
<feComposite in2="hardAlpha" operator="arithmetic" k2="-1" k3="1"/>
<feColorMatrix type="matrix" values="0 0 0 0 0.14902 0 0 0 0 0.152941 0 0 0 0 0.156863 0 0 0 0.2 0"/>
<feBlend mode="normal" in2="shape" result="effect1_innerShadow_963_1099"/>
</filter>
</defs>
</svg>
