<svg width="8" height="44" viewBox="0 0 8 44" fill="none" xmlns="http://www.w3.org/2000/svg">
<path d="M7.02222 0L6.57778 31.3798H1.42222L0.977778 0H7.02222ZM4 44C2.9037 44 1.96296 43.6234 1.17778 42.8702C0.392592 42.1169 0 41.2145 0 40.1628C0 39.1111 0.392592 38.2087 1.17778 37.4554C1.96296 36.7022 2.9037 36.3256 4 36.3256C5.0963 36.3256 6.03704 36.7022 6.82222 37.4554C7.60741 38.2087 8 39.1111 8 40.1628C8 40.8592 7.81481 41.4987 7.44444 42.0814C7.08889 42.6641 6.60741 43.1331 6 43.4884C5.40741 43.8295 4.74074 44 4 44Z" fill="white"/>
</svg>
