<svg width="11" height="11" viewBox="0 0 11 11" fill="none" xmlns="http://www.w3.org/2000/svg">
<path d="M5.36403 1.12132C6.53561 -0.0502569 8.43509 -0.0502569 9.60667 1.12132C10.7782 2.2929 10.7782 4.19238 9.60667 5.36396L8.54601 6.42462C8.35075 6.61988 8.03417 6.61988 7.8389 6.42462C7.64364 6.22936 7.64364 5.91278 7.8389 5.71751L8.89957 4.65685C9.68062 3.8758 9.6806 2.60946 8.89957 1.82843C8.11853 1.04739 6.8522 1.04737 6.07114 1.82843L5.01048 2.88909C4.81522 3.08435 4.49863 3.08435 4.30337 2.88909C4.10811 2.69383 4.10811 2.37724 4.30337 2.18198L5.36403 1.12132Z" fill="#C32222"/>
<path d="M2.88916 4.3033C2.6939 4.10804 2.37731 4.10804 2.18205 4.3033L1.12139 5.36396C-0.0501865 6.53554 -0.0501865 8.43502 1.12139 9.6066C2.29297 10.7782 4.19245 10.7782 5.36403 9.6066L6.42469 8.54594C6.61995 8.35068 6.61995 8.0341 6.42469 7.83883C6.22943 7.64357 5.91285 7.64357 5.71758 7.83883L4.65692 8.89949C3.87587 9.68055 2.60953 9.68053 1.8285 8.89949C1.04746 8.11846 1.04744 6.85213 1.8285 6.07107L2.88916 5.01041C3.08442 4.81515 3.08442 4.49856 2.88916 4.3033Z" fill="#C32222"/>
<path d="M6.85766 3.00924C7.09544 2.77145 7.48097 2.77146 7.71875 3.00924C7.95654 3.24703 7.95654 3.63255 7.71875 3.87034L3.87041 7.71868C3.63262 7.95647 3.2471 7.95647 3.00931 7.71868C2.77153 7.4809 2.77153 7.09537 3.00931 6.85759L6.85766 3.00924Z" fill="#C32222"/>
</svg>
