<svg width="12" height="12" viewBox="0 0 12 12" fill="none" xmlns="http://www.w3.org/2000/svg">
<path opacity="0.97" d="M4.06807 11.1009V11.1H4.06684H4.0656H4.06437H4.06313H4.06189H4.06066H4.05942H4.05819H4.05695H4.05571H4.05448H4.05324H4.05201H4.05077H4.04953H4.0483H4.04706H4.04583H4.04459H4.04335H4.04212H4.04088H4.03965H4.03841H4.03717H4.03594H4.0347H4.03347H4.03223H4.031H4.02976H4.02852H4.02729H4.02605H4.02482H4.02358H4.02234H4.02111H4.01987H4.01864H4.0174H4.01616H4.01493H4.01369H4.01246H4.01122H4.00998H4.00875H4.00751H4.00628H4.00504H4.0038H4.00257H4.00133H4.0001H3.99886H3.99763H3.99639H3.99515H3.99392H3.99268H3.99145H3.99021H3.98897H3.98774H3.9865H3.98527H3.98403H3.98279H3.98156H3.98032H3.97909H3.97785H3.97661H3.97538H3.97414H3.97291H3.97167H3.97044H3.9692H3.96796H3.96673H3.96549H3.96426H3.96302H3.96178H3.96055H3.95931H3.95808H3.95684H3.9556H3.95437H3.95313H3.9519H3.95066H3.94942H3.94819H3.94695H3.94572H3.94448H3.94324H3.94201H3.94077H3.93954H3.9383H3.93707H3.93583H3.93459H3.93336H3.93212H3.93089H3.92965H3.92841H3.92718H3.92594H3.92471H3.92347H3.92223H3.921H3.91976H3.91853H3.91729H3.91605H3.91482H3.91358H3.91235H3.91111H3.90988H3.90864H3.9074H3.90617H3.90493H3.9037H3.90246H3.90122H3.89999H3.89875H3.89752H3.89628H3.89504H3.89381H3.89257H3.89134H3.8901H3.88886H3.88763H3.88639H3.88516H3.88392H3.88268H3.88145H3.88021H3.87898H3.87774H3.87651H3.87527H3.87403H3.8728H3.87156H3.87033H3.86909H3.86785H3.86662H3.86538H3.86415H3.86291H3.86167H3.86044H3.8592H3.85797H3.85673H3.85549H3.85426H3.85302H3.85179H3.85055H3.84932H3.84808H3.84684H3.84561H3.84437H3.84314H3.8419H3.84066H3.83943H3.83819H3.83696H3.83572H3.83448H3.83325H3.83201H3.83078H3.82954H3.8283H3.82707H3.82583H3.8246H3.82336H3.82212H3.82089H3.81965H3.81842H3.81718H3.81595H3.81471H3.81347H3.81224H3.811H3.80977H3.80853H3.80729H3.80606H3.80482H3.80359H3.80235H3.80111H3.79988H3.79864H3.79741H3.79617H3.79493H3.7937H3.79246H3.79123H3.78999H3.78876H3.78752H3.78628H3.78505H3.78381H3.78258H3.78134H3.7801H3.77887H3.77763H3.7764H3.77516H3.77392H3.77269H3.77145H3.77022H3.76898H3.76774H3.76651H3.76527H3.76404H3.7628H3.76157H3.76033H3.75909H3.75786H3.75662H3.75539H3.75415H3.75291H3.75168H3.75044H3.74921H3.74797H3.74673H3.7455H3.74426H3.74303H3.74179H3.74055H3.73932H3.73808H3.73685H3.73561H3.73438H3.73314H3.7319H3.73067H3.72943H3.7282H3.72696H3.72572H3.72449H3.72325H3.72202H3.72078H3.71954H3.71831H3.71707H3.71584H3.7146H3.71336H3.71213H3.71089H3.70966H3.70842H3.70718H3.70595H3.70471H3.70348H3.70224H3.70101H3.69977H3.69853H3.6973H3.69606H3.69483H3.69359H3.69235H3.69112H3.68988H3.68865H3.68741H3.68617H3.68494H3.6837H3.68247H3.68123H3.67999H3.67876H3.67752H3.67629H3.67505H3.67382H3.67258H3.67134H3.67011H3.66887H3.66764H3.6664H3.66516H3.66393H3.66269H3.66146H3.66022H3.65898H3.65775H3.65651H3.65528H3.65404H3.6528H3.65157H3.65033H3.6491H3.64786H3.64662H3.64539H3.64415H3.64292H3.64168H3.64045H3.63921H3.63797H3.63674H3.6355H3.63427H3.63303H3.63179H3.63056H3.62932H3.62809H3.62685H3.62561H3.62438H3.62314H3.62191H3.62067H3.61943H3.6182H3.61696H3.61573H3.61449H3.61326H3.61202H3.61078H3.60955H3.60831H3.60708H3.60584H3.6046H3.60337H3.60213H3.6009H3.59966H3.59842H3.59719H3.59595H3.59472H3.59348H3.59224H3.59101H3.58977H3.58854H3.5873H3.58606H3.58483H3.58359H3.58236H3.58112H3.57989H3.57865H3.57741H3.57618H3.57494H3.57371H3.57247H3.57123H3.57H3.56876H3.56753H3.56629H3.56505H3.56382H3.56258H3.56135H3.56011H3.55887H3.55764H3.5564H3.55517H3.55393H3.5527H3.55146H3.55022H3.54899H3.54775H3.54652H3.54528H3.54404H3.54281H3.54157H3.54034H3.5391H3.53786H3.53663H3.53539H3.53416H3.53292H3.53168H3.53045H3.52921H3.52798H3.52674H3.5255H3.52427H3.52303H3.5218H3.52056H3.51933H3.51809H3.51685H3.51562H3.51438H3.51315H3.51191H3.51067H3.50944H3.5082H3.50697H3.50573H3.50449H3.50326H3.50202H3.50079H3.49955H3.49831H3.49708H3.49584H3.49461H3.49337H3.49214H3.4909H3.48966H3.48843H3.48719H3.48596H3.48472H3.48348H3.48225H3.48101H3.47978H3.47854H3.4773H3.47607H3.47483H3.4736H3.47236H3.47112H3.46989H3.46865H3.46742H3.46618H3.46494H3.46371H3.46247H3.46124H3.46H3.45877H3.45753H3.45629H3.45506H3.45382H3.45259H3.45135H3.45011H3.44888H3.44764H3.44641H3.44517H3.44393H3.4427H3.44146H3.44023H3.43899H3.43775H3.43652H3.43528H3.42752L3.41985 11.0988C2.34354 10.9307 1.57061 10.3526 1.11079 9.37101L1.10813 9.36533L1.10831 9.36525C1.00782 9.11031 0.938663 8.84945 0.900984 8.58284L0.899006 8.56885L4.06807 11.1009ZM4.06807 11.1009L4.08138 11.0991M4.06807 11.1009L4.08138 11.0991M4.08138 11.0991L4.06807 11L4.08138 11.0991ZM0.9 7.96106V7.94697L1 7.96106H0.9ZM0.9 7.96106V7.96225M0.9 7.96106V7.96225M0.9 7.96225V7.96344M0.9 7.96225V7.96344M0.9 7.96344V7.96462M0.9 7.96344V7.96462M0.9 7.96462V7.96581M0.9 7.96462V7.96581M0.9 7.96581V7.967M0.9 7.96581V7.967M0.9 7.967V7.96818M0.9 7.967V7.96818M0.9 7.96818V7.96937M0.9 7.96818V7.96937M0.9 7.96937V7.97056M0.9 7.96937V7.97056M0.9 7.97056V7.97175M0.9 7.97056V7.97175M0.9 7.97175V7.97293M0.9 7.97175V7.97293M0.9 7.97293V7.97412M0.9 7.97293V7.97412M0.9 7.97412V7.97531M0.9 7.97412V7.97531M0.9 7.97531V7.97649M0.9 7.97531V7.97649M0.9 7.97649V7.97768M0.9 7.97649V7.97768M0.9 7.97768V7.97887M0.9 7.97768V7.97887M0.9 7.97887V7.98006M0.9 7.97887V7.98006M0.9 7.98006V7.98124M0.9 7.98006V7.98124M0.9 7.98124V7.98243M0.9 7.98124V7.98243M0.9 7.98243V7.98362M0.9 7.98243V7.98362M0.9 7.98362V7.9848M0.9 7.98362V7.9848M0.9 7.9848V7.98599M0.9 7.9848V7.98599M0.9 7.98599V7.98718M0.9 7.98599V7.98718M0.9 7.98718V7.98837M0.9 7.98718V7.98837M0.9 7.98837V7.98955M0.9 7.98837V7.98955M0.9 7.98955V7.99074M0.9 7.98955V7.99074M0.9 7.99074V7.99193M0.9 7.99074V7.99193M0.9 7.99193V7.99311M0.9 7.99193V7.99311M0.9 7.99311V7.9943M0.9 7.99311V7.9943M0.9 7.9943V7.99549M0.9 7.9943V7.99549M0.9 7.99549V7.99668M0.9 7.99549V7.99668M0.9 7.99668V7.99786M0.9 7.99668V7.99786M0.9 7.99786V7.99905M0.9 7.99786V7.99905M0.9 7.99905V8.00024M0.9 7.99905V8.00024M0.9 8.00024V8.00142M0.9 8.00024V8.00142M0.9 8.00142V8.00261M0.9 8.00142V8.00261M0.9 8.00261V8.0038M0.9 8.00261V8.0038M0.9 8.0038V8.00499M0.9 8.0038V8.00499M0.9 8.00499V8.00617M0.9 8.00499V8.00617M0.9 8.00617V8.00736M0.9 8.00617V8.00736M0.9 8.00736V8.00855M0.9 8.00736V8.00855M0.9 8.00855V8.00973M0.9 8.00855V8.00973M0.9 8.00973V8.01092M0.9 8.00973V8.01092M0.9 8.01092V8.01211M0.9 8.01092V8.01211M0.9 8.01211V8.01329M0.9 8.01211V8.01329M0.9 8.01329V8.01448M0.9 8.01329V8.01448M0.9 8.01448V8.01567M0.9 8.01448V8.01567M0.9 8.01567V8.01686M0.9 8.01567V8.01686M0.9 8.01686V8.01804M0.9 8.01686V8.01804M0.9 8.01804V8.01923M0.9 8.01804V8.01923M0.9 8.01923V8.02042M0.9 8.01923V8.02042M0.9 8.02042V8.0216M0.9 8.02042V8.0216M0.9 8.0216V8.02279M0.9 8.0216V8.02279M0.9 8.02279V8.02398M0.9 8.02279V8.02398M0.9 8.02398V8.02517M0.9 8.02398V8.02517M0.9 8.02517V8.02635M0.9 8.02517V8.02635M0.9 8.02635V8.02754M0.9 8.02635V8.02754M0.9 8.02754V8.02873M0.9 8.02754V8.02873M0.9 8.02873V8.02991M0.9 8.02873V8.02991M0.9 8.02991V8.0311M0.9 8.02991V8.0311M0.9 8.0311V8.03229M0.9 8.0311V8.03229M0.9 8.03229V8.03348M0.9 8.03229V8.03348M0.9 8.03348V8.03466M0.9 8.03348V8.03466M0.9 8.03466V8.03585M0.9 8.03466V8.03585M0.9 8.03585V8.03704M0.9 8.03585V8.03704M0.9 8.03704V8.03822M0.9 8.03704V8.03822M0.9 8.03822V8.03941M0.9 8.03822V8.03941M0.9 8.03941V8.0406M0.9 8.03941V8.0406M0.9 8.0406V8.04179M0.9 8.0406V8.04179M0.9 8.04179V8.04297M0.9 8.04179V8.04297M0.9 8.04297V8.04416M0.9 8.04297V8.04416M0.9 8.04416V8.04535M0.9 8.04416V8.04535M0.9 8.04535V8.04653M0.9 8.04535V8.04653M0.9 8.04653V8.04772M0.9 8.04653V8.04772M0.9 8.04772V8.04891M0.9 8.04772V8.04891M0.9 8.04891V8.0501M0.9 8.04891V8.0501M0.9 8.0501V8.05128M0.9 8.0501V8.05128M0.9 8.05128V8.05247M0.9 8.05128V8.05247M0.9 8.05247V8.05366M0.9 8.05247V8.05366M0.9 8.05366V8.05484M0.9 8.05366V8.05484M0.9 8.05484V8.05603M0.9 8.05484V8.05603M0.9 8.05603V8.05722M0.9 8.05603V8.05722M0.9 8.05722V8.0584M0.9 8.05722V8.0584M0.9 8.0584V8.05959M0.9 8.0584V8.05959M0.9 8.05959V8.06078M0.9 8.05959V8.06078M0.9 8.06078V8.06197M0.9 8.06078V8.06197M0.9 8.06197V8.06315M0.9 8.06197V8.06315M0.9 8.06315V8.06434M0.9 8.06315V8.06434M0.9 8.06434V8.06553M0.9 8.06434V8.06553M0.9 8.06553V8.06671M0.9 8.06553V8.06671M0.9 8.06671V8.0679M0.9 8.06671V8.0679M0.9 8.0679V8.06909M0.9 8.0679V8.06909M0.9 8.06909V8.07028M0.9 8.06909V8.07028M0.9 8.07028V8.07146M0.9 8.07028V8.07146M0.9 8.07146V8.07265M0.9 8.07146V8.07265M0.9 8.07265V8.07384M0.9 8.07265V8.07384M0.9 8.07384V8.07502M0.9 8.07384V8.07502M0.9 8.07502V8.07621M0.9 8.07502V8.07621M0.9 8.07621V8.0774M0.9 8.07621V8.0774M0.9 8.0774V8.07859M0.9 8.0774V8.07859M0.9 8.07859V8.07977M0.9 8.07859V8.07977M0.9 8.07977V8.08096M0.9 8.07977V8.08096M0.9 8.08096V8.08215M0.9 8.08096V8.08215M0.9 8.08215V8.08333M0.9 8.08215V8.08333M0.9 8.08333V8.08452M0.9 8.08333V8.08452M0.9 8.08452V8.08571M0.9 8.08452V8.08571M0.9 8.08571V8.08689M0.9 8.08571V8.08689M0.9 8.08689V8.08808M0.9 8.08689V8.08808M0.9 8.08808V8.08927M0.9 8.08808V8.08927M0.9 8.08927V8.09046M0.9 8.08927V8.09046M0.9 8.09046V8.09164M0.9 8.09046V8.09164M0.9 8.09164V8.09283M0.9 8.09164V8.09283M0.9 8.09283V8.09402M0.9 8.09283V8.09402M0.9 8.09402V8.0952M0.9 8.09402V8.0952M0.9 8.0952V8.09639M0.9 8.0952V8.09639M0.9 8.09639V8.09758M0.9 8.09639V8.09758M0.9 8.09758V8.09877M0.9 8.09758V8.09877M0.9 8.09877V8.09995M0.9 8.09877V8.09995M0.9 8.09995V8.10114M0.9 8.09995V8.10114M0.9 8.10114V8.10233M0.9 8.10114V8.10233M0.9 8.10233V8.10351M0.9 8.10233V8.10351M0.9 8.10351V8.1047M0.9 8.10351V8.1047M0.9 8.1047V8.10589M0.9 8.1047V8.10589M0.9 8.10589V8.10708M0.9 8.10589V8.10708M0.9 8.10708V8.10826M0.9 8.10708V8.10826M0.9 8.10826V8.10945M0.9 8.10826V8.10945M0.9 8.10945V8.11064M0.9 8.10945V8.11064M0.9 8.11064V8.11182M0.9 8.11064V8.11182M0.9 8.11182V8.11301M0.9 8.11182V8.11301M0.9 8.11301V8.1142M0.9 8.11301V8.1142M0.9 8.1142V8.11538M0.9 8.1142V8.11538M0.9 8.11538V8.11657M0.9 8.11538V8.11657M0.9 8.11657V8.11776M0.9 8.11657V8.11776M0.9 8.11776V8.11895M0.9 8.11776V8.11895M0.9 8.11895V8.12013M0.9 8.11895V8.12013M0.9 8.12013V8.12132M0.9 8.12013V8.12132M0.9 8.12132V8.12251M0.9 8.12132V8.12251M0.9 8.12251V8.12369M0.9 8.12251V8.12369M0.9 8.12369V8.12488M0.9 8.12369V8.12488M0.9 8.12488V8.12607M0.9 8.12488V8.12607M0.9 8.12607V8.12726M0.9 8.12607V8.12726M0.9 8.12726V8.12844M0.9 8.12726V8.12844M0.9 8.12844V8.12963M0.9 8.12844V8.12963M0.9 8.12963V8.13082M0.9 8.12963V8.13082M0.9 8.13082V8.132M0.9 8.13082V8.132M0.9 8.132V8.13319M0.9 8.132V8.13319M0.9 8.13319V8.13438M0.9 8.13319V8.13438M0.9 8.13438V8.13556M0.9 8.13438V8.13556M0.9 8.13556V8.13675M0.9 8.13556V8.13675M0.9 8.13675V8.13794M0.9 8.13675V8.13794M0.9 8.13794V8.13913M0.9 8.13794V8.13913M0.9 8.13913V8.14031M0.9 8.13913V8.14031M0.9 8.14031V8.1415M0.9 8.14031V8.1415M0.9 8.1415V8.14269M0.9 8.1415V8.14269M0.9 8.14269V8.14387M0.9 8.14269V8.14387M0.9 8.14387V8.14506M0.9 8.14387V8.14506M0.9 8.14506V8.14625M0.9 8.14506V8.14625M0.9 8.14625V8.14744M0.9 8.14625V8.14744M0.9 8.14744V8.14862M0.9 8.14744V8.14862M0.9 8.14862V8.14981M0.9 8.14862V8.14981M0.9 8.14981V8.151M0.9 8.14981V8.151M0.9 8.151V8.15218M0.9 8.151V8.15218M0.9 8.15218V8.15337M0.9 8.15218V8.15337M0.9 8.15337V8.15456M0.9 8.15337V8.15456M0.9 8.15456V8.15575M0.9 8.15456V8.15575M0.9 8.15575V8.15693M0.9 8.15575V8.15693M0.9 8.15693V8.15812M0.9 8.15693V8.15812M0.9 8.15812V8.15931M0.9 8.15812V8.15931M0.9 8.15931V8.16049M0.9 8.15931V8.16049M0.9 8.16049V8.16168M0.9 8.16049V8.16168M0.9 8.16168V8.16287M0.9 8.16168V8.16287M0.9 8.16287V8.16405M0.9 8.16287V8.16405M0.9 8.16405V8.16524M0.9 8.16405V8.16524M0.9 8.16524V8.16643M0.9 8.16524V8.16643M0.9 8.16643V8.16762M0.9 8.16643V8.16762M0.9 8.16762V8.1688M0.9 8.16762V8.1688M0.9 8.1688V8.16999M0.9 8.1688V8.16999M0.9 8.16999V8.17118M0.9 8.16999V8.17118M0.9 8.17118V8.17236M0.9 8.17118V8.17236M0.9 8.17236V8.17355M0.9 8.17236V8.17355M0.9 8.17355V8.17474M0.9 8.17355V8.17474M0.9 8.17474V8.17593M0.9 8.17474V8.17593M0.9 8.17593V8.17711M0.9 8.17593V8.17711M0.9 8.17711V8.1783M0.9 8.17711V8.1783M0.9 8.1783V8.17949M0.9 8.1783V8.17949M0.9 8.17949V8.18067M0.9 8.17949V8.18067M0.9 8.18067V8.18186M0.9 8.18067V8.18186M0.9 8.18186V8.18305M0.9 8.18186V8.18305M0.9 8.18305V8.18424M0.9 8.18305V8.18424M0.9 8.18424V8.18542M0.9 8.18424V8.18542M0.9 8.18542V8.18661M0.9 8.18542V8.18661M0.9 8.18661V8.1878M0.9 8.18661V8.1878M0.9 8.1878V8.18898M0.9 8.1878V8.18898M0.9 8.18898V8.19017M0.9 8.18898V8.19017M0.9 8.19017V8.19136M0.9 8.19017V8.19136M0.9 8.19136V8.19254M0.9 8.19136V8.19254M0.9 8.19254V8.19373M0.9 8.19254V8.19373M0.9 8.19373V8.19492M0.9 8.19373V8.19492M0.9 8.19492V8.19611M0.9 8.19492V8.19611M0.9 8.19611V8.19729M0.9 8.19611V8.19729M0.9 8.19729V8.19848M0.9 8.19729V8.19848M0.9 8.19848V8.19967M0.9 8.19848V8.19967M0.9 8.19967V8.20085M0.9 8.19967V8.20085M0.9 8.20085V8.20204M0.9 8.20085V8.20204M0.9 8.20204V8.20323M0.9 8.20204V8.20323M0.9 8.20323V8.20442M0.9 8.20323V8.20442M0.9 8.20442V8.2056M0.9 8.20442V8.2056M0.9 8.2056V8.20679M0.9 8.2056V8.20679M0.9 8.20679V8.20798M0.9 8.20679V8.20798M0.9 8.20798V8.20916M0.9 8.20798V8.20916M0.9 8.20916V8.21035M0.9 8.20916V8.21035M0.9 8.21035V8.21154M0.9 8.21035V8.21154M0.9 8.21154V8.21272M0.9 8.21154V8.21272M0.9 8.21272V8.21391M0.9 8.21272V8.21391M0.9 8.21391V8.2151M0.9 8.21391V8.2151M0.9 8.2151V8.21629M0.9 8.2151V8.21629M0.9 8.21629V8.21747M0.9 8.21629V8.21747M0.9 8.21747V8.21866M0.9 8.21747V8.21866M0.9 8.21866V8.21985M0.9 8.21866V8.21985M0.9 8.21985V8.22103M0.9 8.21985V8.22103M0.9 8.22103V8.22222M0.9 8.22103V8.22222M0.9 8.22222V8.22341M0.9 8.22222V8.22341M0.9 8.22341V8.2246M0.9 8.22341V8.2246M0.9 8.2246V8.22578M0.9 8.2246V8.22578M0.9 8.22578V8.22697M0.9 8.22578V8.22697M0.9 8.22697V8.22816M0.9 8.22697V8.22816M0.9 8.22816V8.22934M0.9 8.22816V8.22934M0.9 8.22934V8.23053M0.9 8.22934V8.23053M0.9 8.23053V8.23172M0.9 8.23053V8.23172M0.9 8.23172V8.2329M0.9 8.23172V8.2329M0.9 8.2329V8.23409M0.9 8.2329V8.23409M0.9 8.23409V8.23528M0.9 8.23409V8.23528M0.9 8.23528V8.23647M0.9 8.23528V8.23647M0.9 8.23647V8.23765M0.9 8.23647V8.23765M0.9 8.23765V8.23884M0.9 8.23765V8.23884M0.9 8.23884V8.24003M0.9 8.23884V8.24003M0.9 8.24003V8.24121M0.9 8.24003V8.24121M0.9 8.24121V8.2424M0.9 8.24121V8.2424M0.9 8.2424V8.24359M0.9 8.2424V8.24359M0.9 8.24359V8.24478M0.9 8.24359V8.24478M0.9 8.24478V8.24596M0.9 8.24478V8.24596M0.9 8.24596V8.24715M0.9 8.24596V8.24715M0.9 8.24715V8.24834V8.24715ZM7.91275 0.9H7.90388L7.89515 0.901562C7.63718 0.947694 7.38255 1.01561 7.13131 1.10524L7.13119 1.10491L7.12348 1.10842C6.8773 1.22048 6.64726 1.35717 6.43353 1.51847L6.43313 1.51794L6.42474 1.52594C5.90373 2.02297 5.3886 2.52688 4.87933 3.03766L4.87871 3.03704L4.87068 3.04755C4.79918 3.14113 4.75591 3.24251 4.74782 3.35077C4.73973 3.459 4.76742 3.56578 4.82411 3.66916L4.82977 3.67948L4.83767 3.68821C4.93211 3.7925 5.04125 3.86166 5.16558 3.88387C5.2898 3.90606 5.41662 3.87913 5.54237 3.81448L5.55636 3.80729L5.56746 3.79615C6.07113 3.29094 6.58064 2.79256 7.09595 2.30101C7.21263 2.21101 7.33818 2.13407 7.47273 2.07017C7.89601 1.90825 8.28529 1.87004 8.64351 1.94873C9.00103 2.02726 9.3361 2.22408 9.64858 2.54648C9.93986 2.93596 10.0836 3.32053 10.0895 3.70158C10.0955 4.08219 9.96419 4.4703 9.68593 4.86763C9.19029 5.37737 8.68778 5.88137 8.1784 6.37961L8.16826 6.38953L8.16127 6.40188C8.05451 6.59069 8.05451 6.78634 8.16127 6.97515L8.16725 6.98572L8.17558 6.99454C8.28079 7.10609 8.4004 7.1772 8.53456 7.19151C8.66865 7.20581 8.80085 7.16162 8.92786 7.07503L8.93515 7.07006L8.94145 7.06389C9.45714 6.55945 9.96588 6.04921 10.4677 5.53315L10.4681 5.53355L10.4747 5.52512C10.816 5.08955 11.0244 4.59813 11.0991 4.0525L11.1 4.05262V4.03894V4.03771V4.03649V4.03527V4.03404V4.03282V4.03159V4.03037V4.02914V4.02792V4.0267V4.02547V4.02425V4.02302V4.0218V4.02058V4.01935V4.01813V4.0169V4.01568V4.01445V4.01323V4.01201V4.01078V4.00956V4.00833V4.00711V4.00589V4.00466V4.00344V4.00221V4.00099V3.99976V3.99854V3.99732V3.99609V3.99487V3.99364V3.99242V3.9912V3.98997V3.98875V3.98752V3.9863V3.98507V3.98385V3.98263V3.9814V3.98018V3.97895V3.97773V3.97651V3.97528V3.97406V3.97283V3.97161V3.97038V3.96916V3.96794V3.96671V3.96549V3.96426V3.96304V3.96181V3.96059V3.95937V3.95814V3.95692V3.95569V3.95447V3.95325V3.95202V3.9508V3.94957V3.94835V3.94712V3.9459V3.94468V3.94345V3.94223V3.941V3.93978V3.93856V3.93733V3.93611V3.93488V3.93366V3.93243V3.93121V3.92999V3.92876V3.92754V3.92631V3.92509V3.92387V3.92264V3.92142V3.92019V3.91897V3.91774V3.91652V3.9153V3.91407V3.91285V3.91162V3.9104V3.90918V3.90795V3.90673V3.9055V3.90428V3.90305V3.90183V3.90061V3.89938V3.89816V3.89693V3.89571V3.89448V3.89326V3.89204V3.89081V3.88959V3.88836V3.88714V3.88592V3.88469V3.88347V3.88224V3.88102V3.87979V3.87857V3.87735V3.87612V3.8749V3.87367V3.87245V3.87123V3.87V3.86878V3.86755V3.86633V3.8651V3.86388V3.86266V3.86143V3.86021V3.85898V3.85776V3.85654V3.85531V3.85409V3.85286V3.85164V3.85041V3.84919V3.84797V3.84674V3.84552V3.84429V3.84307V3.84185V3.84062V3.8394V3.83817V3.83695V3.83572V3.8345V3.83328V3.83205V3.83083V3.8296V3.82838V3.82715V3.82593V3.82471V3.82348V3.82226V3.82103V3.81981V3.81859V3.81736V3.81614V3.81491V3.81369V3.81246V3.81124V3.81002V3.80879V3.80757V3.80634V3.80512V3.8039V3.80267V3.80145V3.80022V3.799V3.79777V3.79655V3.79533V3.7941V3.79288V3.79165V3.79043V3.78921V3.78798V3.78676V3.78553V3.78431V3.78308V3.78186V3.78064V3.77941V3.77819V3.77696V3.77574V3.77452V3.77329V3.77207V3.77084V3.76962V3.76839V3.76717V3.76595V3.76472V3.7635V3.76227V3.76105V3.75982V3.7586V3.75738V3.75615V3.75493V3.7537V3.75248V3.75126V3.75003V3.74881V3.74758V3.74636V3.74513V3.74391V3.74269V3.74146V3.74024V3.73901V3.73779V3.73657V3.73534V3.73412V3.73289V3.73167V3.73044V3.72922V3.728V3.72677V3.72555V3.72432V3.7231V3.72188V3.72065V3.71943V3.7182V3.71698V3.71575V3.71453V3.71331V3.71208V3.71086V3.70963V3.70841V3.70719V3.70596V3.70474V3.70351V3.70229V3.70106V3.69984V3.69862V3.69739V3.69617V3.69494V3.69372V3.69249V3.69127V3.69005V3.68882V3.6876V3.68637V3.68515V3.68393V3.6827V3.68148V3.68025V3.67903V3.6778V3.67658V3.67536V3.67413V3.67291V3.67168V3.67046V3.66924V3.66801V3.66679V3.66556V3.66434V3.66311V3.66189V3.66067V3.65944V3.65822V3.65699V3.65577V3.65455V3.65332V3.6521V3.65087V3.64965V3.64842V3.6472V3.64598V3.64475V3.64353V3.6423V3.64108V3.63986V3.63863V3.63741V3.63618V3.63496V3.63373V3.63251V3.63129V3.63006V3.62884V3.62761V3.62639V3.62516V3.62394V3.62272V3.62149V3.62027V3.61904V3.61782V3.6166V3.61537V3.61415V3.61292V3.6117V3.61047V3.60925V3.60803V3.6068V3.60558V3.60435V3.60313V3.60191V3.60068V3.59946V3.59823V3.59701V3.59578V3.59456V3.59334V3.59211V3.59089V3.58966V3.58844V3.58722V3.58599V3.58477V3.58354V3.58232V3.58109V3.57987V3.57865V3.57742V3.5762V3.57497V3.57375V3.57253V3.5713V3.57008V3.56885V3.56763V3.5664V3.56518V3.56396V3.56273V3.56151V3.56028V3.55906V3.55783V3.55661V3.55539V3.55416V3.55294V3.55171V3.55049V3.54927V3.54804V3.54682V3.54559V3.54437V3.54314V3.54192V3.5407V3.53947V3.53825V3.53702V3.5358V3.53458V3.53335V3.53213V3.5309V3.52968V3.52845V3.52723V3.52601V3.52478V3.52356V3.52233V3.52111V3.51989V3.51866V3.51744V3.51621V3.51499V3.51376V3.51254V3.51132V3.51009V3.50887V3.50764V3.50642V3.5052V3.50397V3.50275V3.50152V3.5003V3.49907V3.49785V3.49663V3.4954V3.49418V3.49295V3.49173V3.4905V3.48928V3.48806V3.48683V3.48561V3.48438V3.48316V3.48194V3.48071V3.47949V3.47826V3.47704V3.47581V3.47459V3.47337V3.47214V3.47092V3.46969V3.46847V3.46725V3.46602V3.4648V3.46357V3.46235V3.46112V3.4599V3.45868V3.45745V3.45623V3.455V3.45378V3.45256V3.45133V3.45011V3.44888V3.44766V3.44643V3.44521V3.44399V3.44276V3.44154V3.44031V3.43909V3.43787V3.43664V3.43542V3.43419V3.43297V3.43174V3.43052V3.4293V3.42807V3.42685V3.42562V3.4244V3.42317V3.42195V3.42073V3.4195V3.41828V3.41705V3.41583V3.41461V3.41338V3.41216V3.4041L11.0987 3.39615C11.0692 3.21398 11.0266 3.03225 10.971 2.85101L10.9712 2.85095L10.9689 2.84491C10.5508 1.74166 9.7509 1.09094 8.58072 0.901288L8.57277 0.9H8.56472H8.56344H8.56217H8.5609H8.55962H8.55835H8.55708H8.5558H8.55453H8.55326H8.55198H8.55071H8.54944H8.54816H8.54689H8.54562H8.54434H8.54307H8.5418H8.54052H8.53925H8.53798H8.5367H8.53543H8.53416H8.53288H8.53161H8.53034H8.52906H8.52779H8.52652H8.52524H8.52397H8.5227H8.52142H8.52015H8.51888H8.5176H8.51633H8.51506H8.51378H8.51251H8.51124H8.50996H8.50869H8.50742H8.50614H8.50487H8.5036H8.50232H8.50105H8.49978H8.4985H8.49723H8.49596H8.49468H8.49341H8.49214H8.49086H8.48959H8.48832H8.48704H8.48577H8.4845H8.48322H8.48195H8.48068H8.4794H8.47813H8.47686H8.47558H8.47431H8.47304H8.47176H8.47049H8.46922H8.46794H8.46667H8.4654H8.46412H8.46285H8.46158H8.4603H8.45903H8.45776H8.45648H8.45521H8.45394H8.45266H8.45139H8.45012H8.44884H8.44757H8.4463H8.44502H8.44375H8.44248H8.4412H8.43993H8.43865H8.43738H8.43611H8.43483H8.43356H8.43229H8.43102H8.42974H8.42847H8.42719H8.42592H8.42465H8.42337H8.4221H8.42083H8.41955H8.41828H8.41701H8.41573H8.41446H8.41319H8.41191H8.41064H8.40937H8.40809H8.40682H8.40555H8.40427H8.403H8.40173H8.40045H8.39918H8.39791H8.39663H8.39536H8.39409H8.39281H8.39154H8.39027H8.38899H8.38772H8.38645H8.38517H8.3839H8.38263H8.38135H8.38008H8.37881H8.37753H8.37626H8.37499H8.37371H8.37244H8.37117H8.36989H8.36862H8.36735H8.36607H8.3648H8.36353H8.36225H8.36098H8.35971H8.35843H8.35716H8.35589H8.35461H8.35334H8.35207H8.35079H8.34952H8.34825H8.34697H8.3457H8.34443H8.34315H8.34188H8.34061H8.33933H8.33806H8.33678H8.33551H8.33424H8.33296H8.33169H8.33042H8.32914H8.32787H8.3266H8.32532H8.32405H8.32278H8.3215H8.32023H8.31896H8.31768H8.31641H8.31514H8.31386H8.31259H8.31132H8.31004H8.30877H8.3075H8.30622H8.30495H8.30368H8.3024H8.30113H8.29986H8.29858H8.29731H8.29604H8.29476H8.29349H8.29222H8.29094H8.28967H8.2884H8.28712H8.28585H8.28458H8.2833H8.28203H8.28076H8.27948H8.27821H8.27694H8.27566H8.27439H8.27312H8.27184H8.27057H8.2693H8.26802H8.26675H8.26548H8.2642H8.26293H8.26166H8.26038H8.25911H8.25783H8.25656H8.25529H8.25401H8.25274H8.25147H8.25019H8.24892H8.24765H8.24637H8.2451H8.24383H8.24255H8.24128H8.24001H8.23873H8.23746H8.23619H8.23491H8.23364H8.23237H8.23109H8.22982H8.22855H8.22727H8.226H8.22473H8.22345H8.22218H8.22091H8.21963H8.21836H8.21709H8.21581H8.21454H8.21327H8.21199H8.21072H8.20945H8.20817H8.2069H8.20563H8.20435H8.20308H8.20181H8.20053H8.19926H8.19799H8.19671H8.19544H8.19417H8.19289H8.19162H8.19035H8.18907H8.1878H8.18653H8.18525H8.18398H8.18271H8.18143H8.18016H8.17888H8.17761H8.17634H8.17507H8.17379H8.17252H8.17124H8.16997H8.1687H8.16742H8.16615H8.16488H8.1636H8.16233H8.16106H8.15978H8.15851H8.15724H8.15596H8.15469H8.15342H8.15214H8.15087H8.1496H8.14832H8.14705H8.14578H8.1445H8.14323H8.14196H8.14068H8.13941H8.13814H8.13686H8.13559H8.13432H8.13304H8.13177H8.1305H8.12922H8.12795H8.12668H8.1254H8.12413H8.12286H8.12158H8.12031H8.11904H8.11776H8.11649H8.11522H8.11394H8.11267H8.1114H8.11012H8.10885H8.10758H8.1063H8.10503H8.10376H8.10248H8.10121H8.09994H8.09866H8.09739H8.09612H8.09484H8.09357H8.0923H8.09102H8.08975H8.08847H8.0872H8.08593H8.08465H8.08338H8.08211H8.08083H8.07956H8.07829H8.07701H8.07574H8.07447H8.07319H8.07192H8.07065H8.06937H8.0681H8.06683H8.06555H8.06428H8.06301H8.06173H8.06046H8.05919H8.05791H8.05664H8.05537H8.05409H8.05282H8.05155H8.05027H8.049H8.04773H8.04645H8.04518H8.04391H8.04263H8.04136H8.04009H8.03881H8.03754H8.03627H8.03499H8.03372H8.03245H8.03117H8.0299H8.02863H8.02735H8.02608H8.02481H8.02353H8.02226H8.02099H8.01971H8.01844H8.01717H8.01589H8.01462H8.01335H8.01207H8.0108H8.00953H8.00825H8.00698H8.00571H8.00443H8.00316H8.00189H8.00061H7.99934H7.99807H7.99679H7.99552H7.99425H7.99297H7.9917H7.99043H7.98915H7.98788H7.98661H7.98533H7.98406H7.98279H7.98151H7.98024H7.97897H7.97769H7.97642H7.97515H7.97387H7.9726H7.97133H7.97005H7.96878H7.96751H7.96623H7.96496H7.96369H7.96241H7.96114H7.95987H7.95859H7.95732H7.95605H7.95477H7.9535H7.95223H7.95095H7.94968H7.94841H7.94713H7.94586H7.94459H7.94331H7.94204H7.94076H7.93949H7.93822H7.93694H7.93567H7.9344H7.93313H7.93185H7.93058H7.92931H7.92803H7.92676H7.92549H7.92421H7.92294H7.92167H7.92039H7.91912H7.91784H7.91657H7.9153H7.91402H7.91275ZM7.72401 3.73973L7.71329 3.74043L7.70297 3.7434C7.63018 3.76431 7.56214 3.7982 7.49908 3.84418L7.49299 3.84863L7.48763 3.85394L3.6046 7.70009L3.59739 7.70723L3.59176 7.71568C3.52994 7.80843 3.49426 7.90717 3.49024 8.01078C3.48622 8.11435 3.5141 8.21576 3.56837 8.31351L3.57427 8.32414L3.58255 8.33304C3.68223 8.4403 3.79646 8.50992 3.92554 8.52818C4.05449 8.54643 4.18406 8.51141 4.31073 8.43651L4.32139 8.4302L4.3302 8.42148L8.21323 4.57533L8.2205 4.56813L8.22616 4.5596C8.28767 4.46697 8.3222 4.36454 8.32896 4.25397L8.32952 4.24482L8.3284 4.23571C8.30857 4.07384 8.25044 3.93918 8.14106 3.84958C8.03187 3.76015 7.88783 3.72893 7.72401 3.73973Z" fill="#C92222" stroke="#C92222" stroke-width="0.2"/>
</svg>
