<svg width="87" height="36" viewBox="0 0 87 36" fill="none" xmlns="http://www.w3.org/2000/svg">
<path fill-rule="evenodd" clip-rule="evenodd" d="M11.9205 17.9998L1.41851 28.066C-0.429799 29.8376 -0.479739 32.7594 1.30697 34.5921C3.09367 36.4248 6.04044 36.4743 7.88875 34.7027L19.7756 23.3092C22.804 20.4065 22.804 15.5932 19.7756 12.6904L7.88875 1.29697C6.04044 -0.474628 3.09367 -0.425109 1.30697 1.40758C-0.47974 3.24027 -0.4298 6.16212 1.41851 7.93372L11.9205 17.9998Z" fill="url(#paint0_linear_1592_434)"/>
<path d="M7.88875 34.7027L10.3032 32.3885C13.6323 28.6478 16.4718 22.8269 11.9205 17.9998L1.41851 7.93372C-0.4298 6.16212 -0.47974 3.24027 1.30696 1.40758C3.09367 -0.425109 6.04044 -0.474628 7.88875 1.29697L19.7756 12.6904C22.804 15.5932 22.804 20.4065 19.7756 23.3092L10.3032 32.3885C9.49426 33.2974 8.65646 34.0835 7.88875 34.7027Z" fill="url(#paint1_linear_1592_434)"/>
<path fill-rule="evenodd" clip-rule="evenodd" d="M75.0776 18.0002L85.5795 7.93403C87.4278 6.16243 87.4778 3.24058 85.6911 1.40789C83.9044 -0.424797 80.9576 -0.474316 79.1093 1.29729L67.2225 12.6908C64.1941 15.5935 64.1941 20.4068 67.2225 23.3096L79.1093 34.703C80.9576 36.4746 83.9044 36.4251 85.6911 34.5924C87.4778 32.7597 87.4278 29.8379 85.5795 28.0663L75.0776 18.0002Z" fill="url(#paint2_linear_1592_434)"/>
<path d="M79.1093 1.29729L76.6949 3.61148C73.3657 7.35222 70.5262 13.1731 75.0776 18.0002L85.5795 28.0663C87.4278 29.8379 87.4778 32.7597 85.6911 34.5924C83.9044 36.4251 80.9576 36.4746 79.1093 34.703L67.2225 23.3096C64.1941 20.4068 64.1941 15.5935 67.2225 12.6908L76.6949 3.61148C77.5038 2.70259 78.3416 1.91649 79.1093 1.29729Z" fill="url(#paint3_linear_1592_434)"/>
<path fill-rule="evenodd" clip-rule="evenodd" d="M60.0599 1.30805C61.792 3.05211 61.792 5.87979 60.0599 7.62385L33.1773 34.6916C31.4452 36.4356 28.6369 36.4356 26.9047 34.6916C25.1726 32.9475 25.1726 30.1198 26.9047 28.3758L53.7873 1.30805C55.5194 -0.436015 58.3278 -0.436015 60.0599 1.30805Z" fill="#FF9A9A"/>
<path fill-rule="evenodd" clip-rule="evenodd" d="M26.9046 1.3081C28.6367 -0.435964 31.445 -0.435964 33.1772 1.3081L60.0597 28.3758C61.7919 30.1199 61.7919 32.9476 60.0597 34.6916C58.3276 36.4357 55.5193 36.4357 53.7871 34.6916L26.9046 7.6239C25.1724 5.87984 25.1724 3.05216 26.9046 1.3081Z" fill="#FF9A9A"/>
<defs>
<linearGradient id="paint0_linear_1592_434" x1="18.4715" y1="14.3999" x2="0.661562" y2="36.5329" gradientUnits="userSpaceOnUse">
<stop stop-color="#311A1A"/>
<stop offset="1" stop-color="#FF4D4D"/>
</linearGradient>
<linearGradient id="paint1_linear_1592_434" x1="22.0469" y1="23.6998" x2="-1.05645" y2="0.158542" gradientUnits="userSpaceOnUse">
<stop stop-color="#FF5151"/>
<stop offset="1" stop-color="#FF1D1D"/>
</linearGradient>
<linearGradient id="paint2_linear_1592_434" x1="68.5265" y1="21.6001" x2="86.3365" y2="-0.532887" gradientUnits="userSpaceOnUse">
<stop stop-color="#311A1A"/>
<stop offset="1" stop-color="#FF4D4D"/>
</linearGradient>
<linearGradient id="paint3_linear_1592_434" x1="64.9512" y1="12.3002" x2="88.0545" y2="35.8415" gradientUnits="userSpaceOnUse">
<stop stop-color="#FF5151"/>
<stop offset="1" stop-color="#FF1D1D"/>
</linearGradient>
</defs>
</svg>
