<svg width="193" height="128" viewBox="0 0 193 128" fill="none" xmlns="http://www.w3.org/2000/svg">
<g clip-path="url(#clip0_1703_635)">
<path d="M77.6522 198.509L75.4571 196.579L316.282 38.8498L319.275 40.3069L77.6522 198.509Z" fill="#6A1515" fill-opacity="0.46"/>
<path d="M72.2802 195.893L70.0851 193.964L310.91 36.2347L313.903 37.6917L72.2802 195.893Z" fill="#6A1515" fill-opacity="0.46"/>
<path d="M67.0722 193.358L64.8771 191.429L305.702 33.6995L308.695 35.1565L67.0722 193.358Z" fill="#6A1515" fill-opacity="0.46"/>
<path d="M61.9192 190.85L59.7241 188.92L300.549 31.191L303.542 32.648L61.9192 190.85Z" fill="#6A1515" fill-opacity="0.46"/>
<path d="M56.7666 188.341L54.5714 186.412L295.397 28.6827L298.39 30.1397L56.7666 188.341Z" fill="#6A1515" fill-opacity="0.46"/>
<path d="M51.3399 185.7L49.1447 183.77L289.97 26.0409L292.963 27.498L51.3399 185.7Z" fill="#6A1515" fill-opacity="0.46"/>
<path d="M46.132 183.164L43.9369 181.235L284.762 23.5058L287.755 24.9628L46.132 183.164Z" fill="#6A1515" fill-opacity="0.46"/>
<path d="M41.2846 180.805L39.0895 178.875L279.915 21.146L282.908 22.603L41.2846 180.805Z" fill="#6A1515" fill-opacity="0.46"/>
<path d="M35.9122 178.189L33.7171 176.26L274.542 18.5307L277.535 19.9877L35.9122 178.189Z" fill="#6A1515" fill-opacity="0.46"/>
<path d="M30.7043 175.654L28.5092 173.725L269.334 15.9955L272.327 17.4525L30.7043 175.654Z" fill="#6A1515" fill-opacity="0.46"/>
<path d="M25.5517 173.146L23.3566 171.217L264.182 13.4872L267.175 14.9442L25.5517 173.146Z" fill="#6A1515" fill-opacity="0.46"/>
<path d="M20.3991 170.638L18.204 168.708L259.029 10.9789L262.022 12.4359L20.3991 170.638Z" fill="#6A1515" fill-opacity="0.46"/>
<path d="M14.9721 167.996L12.7769 166.066L253.602 8.33704L256.595 9.79406L14.9721 167.996Z" fill="#6A1515" fill-opacity="0.46"/>
<path d="M9.76417 165.461L7.56905 163.531L248.394 5.80183L251.387 7.25885L9.76417 165.461Z" fill="#6A1515" fill-opacity="0.46"/>
<path d="M4.71559 163.003L2.52047 161.073L243.346 3.34418L246.339 4.8012L4.71559 163.003Z" fill="#6A1515" fill-opacity="0.46"/>
<path d="M-0.656822 160.388L-2.85194 158.458L237.973 0.728889L240.966 2.18591L-0.656822 160.388Z" fill="#6A1515" fill-opacity="0.46"/>
<path d="M-5.86407 157.853L-8.05918 155.923L232.766 -1.806L235.759 -0.348978L-5.86407 157.853Z" fill="#6A1515" fill-opacity="0.46"/>
<path d="M-11.0167 155.344L-13.2118 153.415L227.613 -4.3143L230.606 -2.85728L-11.0167 155.344Z" fill="#6A1515" fill-opacity="0.46"/>
<path d="M-16.1693 152.836L-18.3644 150.907L222.461 -6.8226L225.454 -5.36558L-16.1693 152.836Z" fill="#6A1515" fill-opacity="0.46"/>
<path d="M-21.5963 150.194L-23.7915 148.265L217.034 -9.46448L220.027 -8.00746L-21.5963 150.194Z" fill="#6A1515" fill-opacity="0.46"/>
<path d="M-26.8049 147.659L-29 145.729L211.825 -12L214.818 -10.543L-26.8049 147.659Z" fill="#6A1515" fill-opacity="0.46"/>
</g>
<defs>
<clipPath id="clip0_1703_635">
<rect width="192" height="128" fill="white" transform="translate(0.662109)"/>
</clipPath>
</defs>
</svg>
