<svg width="14" height="14" viewBox="0 0 14 14" fill="none" xmlns="http://www.w3.org/2000/svg">
<path fill-rule="evenodd" clip-rule="evenodd" d="M3.47266 3.00781C3.98803 3.10896 4.13842 3.40063 3.92383 3.88281C3.3264 4.49922 3.0712 5.2375 3.15821 6.09766C3.00847 6.51484 2.73048 6.62875 2.32422 6.43945C2.24401 6.37755 2.18477 6.30005 2.14649 6.20703C1.97413 4.99652 2.32504 3.962 3.19922 3.10352C3.29082 3.06288 3.38199 3.03097 3.47266 3.00781Z" fill="#353535"/>
<path fill-rule="evenodd" clip-rule="evenodd" d="M5.35938 0C5.73308 0 6.10676 0 6.48047 0C8.50128 0.264954 10.0371 1.26756 11.0879 3.00781C11.9753 4.69336 12.0756 6.42513 11.3887 8.20312C11.1523 8.7491 10.847 9.25042 10.4727 9.70703C11.6116 10.8597 12.7555 12.0081 13.9043 13.1523C13.9442 13.2052 13.9761 13.2599 14 13.3164C14 13.4258 14 13.5352 14 13.6445C13.9271 13.8086 13.8086 13.9271 13.6445 14C13.5352 14 13.4258 14 13.3164 14C13.2599 13.9761 13.2052 13.9442 13.1523 13.9043C12.0081 12.7555 10.8597 11.6116 9.70703 10.4727C7.96083 11.8326 6.02853 12.1744 3.91016 11.498C2.17138 10.8257 0.972809 9.618 0.314453 7.875C0.161894 7.41707 0.0570757 6.95223 0 6.48047C0 6.10676 0 5.73308 0 5.35938C0.216061 3.55491 1.0546 2.11935 2.51562 1.05273C3.37619 0.46282 4.32411 0.111908 5.35938 0ZM5.82422 1.03906C7.74905 1.0963 9.20284 1.94396 10.1855 3.58203C10.977 5.15452 10.9679 6.72224 10.1582 8.28516C9.1948 9.877 7.77746 10.7064 5.90625 10.7734C3.82175 10.6792 2.33152 9.69484 1.43555 7.82031C0.731273 5.93923 1.01382 4.22568 2.2832 2.67969C3.24174 1.65585 4.42209 1.10897 5.82422 1.03906Z" fill="#353535"/>
</svg>
