<svg width="23" height="15" viewBox="0 0 23 15" fill="none" xmlns="http://www.w3.org/2000/svg">
<path fill-rule="evenodd" clip-rule="evenodd" d="M9.27419 0.919583C10.4995 0.919583 11.7248 0.919583 12.9501 0.919583C12.939 2.76551 12.9502 4.60589 12.9839 6.44071C13.0274 6.4485 13.0611 6.43755 13.085 6.40785C13.6408 6.34915 14.158 6.17934 14.6364 5.89846C15.6476 5.30743 16.4851 4.53513 17.1488 3.58155C17.7348 2.75703 18.1676 1.85877 18.4472 0.886719C19.6838 0.886719 20.9203 0.886719 22.1569 0.886719C21.8027 2.71615 20.999 4.32648 19.7456 5.7177C18.9845 6.56083 18.1245 7.28383 17.1657 7.88672C20.0681 9.38955 22.0129 11.6681 23 14.7224C23 14.7443 23 14.7662 23 14.7881C23 14.821 23 14.8539 23 14.8867C21.651 14.8867 20.3021 14.8867 18.9531 14.8867C18.286 12.9057 17.0045 11.4323 15.1085 10.4665C14.4802 10.2021 13.8282 10.0214 13.1525 9.92428C13.093 9.8927 13.0255 9.88172 12.9501 9.89141C12.9501 11.5565 12.9501 13.2216 12.9501 14.8867C12.5117 14.8867 12.0733 14.8867 11.6349 14.8867C8.82509 14.7907 6.36321 13.854 4.24927 12.0769C3.97172 11.8119 3.70192 11.5435 3.43988 11.2717C2.03267 9.61345 1.08275 7.72927 0.590176 5.61911C0.227369 4.0614 0.0306217 2.48393 0 0.886719C1.31525 0.886719 2.6305 0.886719 3.94575 0.886719C3.95691 2.73761 4.27729 4.53418 4.90689 6.27639C5.42412 7.59758 6.22787 8.72041 7.31818 9.64494C7.8915 10.0886 8.53226 10.4118 9.24047 10.6144C9.27419 7.38288 9.28542 4.15128 9.27419 0.919583Z" fill="#F82828"/>
</svg>
