<svg width="23" height="19" viewBox="0 0 23 19" fill="none" xmlns="http://www.w3.org/2000/svg">
<path fill-rule="evenodd" clip-rule="evenodd" d="M13.932 3.61171C11.8721 4.42082 7.75513 6.09548 1.58113 8.63567C0.578569 9.01217 0.0533823 9.38049 0.00557195 9.74064C-0.0752279 10.3493 0.731899 10.589 1.831 10.9153C1.9805 10.9597 2.13541 11.0057 2.29422 11.0545C3.37557 11.3864 4.83017 11.7747 5.58635 11.7902C6.27229 11.8042 7.03787 11.5371 7.88309 10.989C13.6517 7.31181 16.6294 5.45317 16.8164 5.4131C16.9483 5.38484 17.131 5.34929 17.2549 5.45323C17.3787 5.55717 17.3665 5.75402 17.3534 5.80683C17.2734 6.12872 14.1052 8.91028 12.4656 10.3497C11.9545 10.7985 11.5919 11.1168 11.5178 11.1895C11.3517 11.3524 11.1825 11.5064 11.0199 11.6545C10.0153 12.569 9.26195 13.2548 11.0616 14.3748C11.9264 14.9129 12.6185 15.358 13.3089 15.802C14.0629 16.2869 14.8149 16.7705 15.788 17.3729C16.0359 17.5263 16.2726 17.6857 16.5032 17.841C17.3807 18.4317 18.169 18.9624 19.143 18.8778C19.7089 18.8286 20.2935 18.3261 20.5903 16.8273C21.2919 13.2853 22.6711 5.61091 22.9898 2.44846C23.0177 2.17139 22.9826 1.81679 22.9544 1.66114C22.9262 1.50547 22.8672 1.28369 22.6529 1.11951C22.3992 0.925077 22.0075 0.884074 21.8323 0.886847C21.0357 0.90024 19.8136 1.30154 13.932 3.61171Z" fill="#F82828"/>
</svg>
