<svg width="22" height="23" viewBox="0 0 22 23" fill="none" xmlns="http://www.w3.org/2000/svg">
<path fill-rule="evenodd" clip-rule="evenodd" d="M22 11.4429V12.313C21.7279 15.8424 20.2813 18.6115 17.6603 20.6227C14.18 23.2915 9.74957 23.5803 5.80613 21.5978C5.74884 21.5704 5.68678 21.5632 5.62949 21.5775L0.115364 22.8821L0.0771713 22.8809L0.0389782 22.8606L0.0198817 22.826V22.7866L1.45212 17.4979C1.46167 17.4442 1.4569 17.3929 1.43303 17.3439C0.960386 16.438 0.602326 15.5333 0.363619 14.6298C-0.228373 12.3811 -0.0994717 10.1419 0.764647 7.90998C3.95377 -0.349505 14.982 -1.59201 20.0474 5.61356C21.2314 7.29768 21.8806 9.24081 22 11.4429ZM12.2774 14.6859C11.51 14.415 10.8289 14.0378 10.2191 13.5682C9.38052 12.9188 8.67917 12.0947 8.08455 11.1326C8.03881 11.0567 8.01849 10.9655 8.02865 10.8769C8.0439 10.7883 8.08455 10.706 8.15062 10.644C8.51654 10.2997 8.80114 9.90344 9.0146 9.45531C9.04509 9.39075 9.05017 9.32493 9.01968 9.2591C8.80623 8.70844 8.58261 8.16285 8.34883 7.61978L7.98291 6.78936C7.86094 6.51087 7.59666 6.37795 7.29173 6.34631C6.81909 6.2982 6.25496 6.49695 5.99069 6.77544C5.59936 7.18432 5.31984 7.61472 5.15213 8.06411C4.8472 8.8844 4.90818 9.77052 5.34017 10.7263C5.66035 11.4288 6.09233 12.1428 6.60055 12.8238C7.62207 14.191 8.96377 15.4278 10.3207 16.186C11.3626 16.7683 12.4654 17.1532 13.6292 17.3392C15.3013 17.6114 17.0495 16.5139 16.892 14.6632C16.8869 14.6087 16.8666 14.5568 16.8361 14.5113C16.8056 14.4657 16.7649 14.4302 16.7141 14.4062L14.1679 13.1871C14.0968 13.153 14.0155 13.1441 13.9392 13.1618C13.863 13.1783 13.7969 13.2213 13.7461 13.2821L12.7144 14.5606L12.6534 14.6214C12.6128 14.6543 12.5671 14.6783 12.5162 14.6923C12.4349 14.7151 12.3536 14.7125 12.2774 14.6859Z" fill="#F82828"/>
</svg>
