<svg class="main__svg_bg" width="1046" height="839" viewBox="0 0 1046 839" fill="none" xmlns="http://www.w3.org/2000/svg">
<g clip-path="url(#clip0_14_51)">
<rect x="356.467" width="90.0334" height="944.587" transform="rotate(22.1714 356.467 0)" fill="#F82828" fill-opacity="0.61"/>
<rect x="352.663" y="145.088" width="5.6277" height="794.772" transform="rotate(22.1714 352.663 145.088)" fill="#6A1515" fill-opacity="0.26"/>
<rect x="263.799" y="233.972" width="2.05463" height="698.791" transform="rotate(22.1714 263.799 233.972)" fill="#6A1515" fill-opacity="0.26"/>
<rect x="267.768" y="233.972" width="2.05463" height="698.791" transform="rotate(22.1714 267.768 233.972)" fill="#6A1515" fill-opacity="0.26"/>
<rect x="271.809" y="233.972" width="2.05463" height="698.791" transform="rotate(22.1714 271.809 233.972)" fill="#6A1515" fill-opacity="0.26"/>
<rect x="275.745" y="233.972" width="2.05463" height="698.791" transform="rotate(22.1714 275.745 233.972)" fill="#6A1515" fill-opacity="0.26"/>
<rect x="279.521" y="233.972" width="2.05463" height="698.791" transform="rotate(22.1714 279.521 233.972)" fill="#6A1515" fill-opacity="0.26"/>
<rect x="451.544" y="38.0779" width="417" height="907.32" transform="rotate(22.1714 451.544 38.0779)" fill="#F82828" fill-opacity="0.61"/>
<path d="M412.967 132.742L430.011 139.688L241.77 598.898L222.266 600.708L412.967 132.742Z" fill="#6A1515" fill-opacity="0.26"/>
<path d="M603.628 183.345L605.887 184.278L487.67 482.345L485.002 482.345L603.628 183.345Z" fill="#6A1515" fill-opacity="0.26"/>
<path d="M608.417 183.345L610.675 184.278L492.459 482.345L489.791 482.345L608.417 183.345Z" fill="#6A1515" fill-opacity="0.26"/>
<path d="M613.059 183.345L615.318 184.278L497.101 482.345L494.433 482.345L613.059 183.345Z" fill="#6A1515" fill-opacity="0.26"/>
<path d="M617.653 183.345L619.911 184.278L501.695 482.345L499.027 482.345L617.653 183.345Z" fill="#6A1515" fill-opacity="0.26"/>
<path d="M622.246 183.345L624.505 184.278L506.288 482.345L503.62 482.345L622.246 183.345Z" fill="#6A1515" fill-opacity="0.26"/>
<path d="M627.083 183.345L629.342 184.278L511.125 482.345L508.457 482.345L627.083 183.345Z" fill="#6A1515" fill-opacity="0.26"/>
<path d="M631.726 183.345L633.984 184.278L515.768 482.345L513.1 482.345L631.726 183.345Z" fill="#6A1515" fill-opacity="0.26"/>
<path d="M636.047 183.345L638.306 184.278L520.089 482.345L517.421 482.345L636.047 183.345Z" fill="#6A1515" fill-opacity="0.26"/>
<path d="M640.836 183.345L643.095 184.278L524.878 482.345L522.21 482.345L640.836 183.345Z" fill="#6A1515" fill-opacity="0.26"/>
<path d="M645.478 183.345L647.737 184.278L529.52 482.345L526.852 482.345L645.478 183.345Z" fill="#6A1515" fill-opacity="0.26"/>
<path d="M650.071 183.345L652.33 184.278L534.114 482.345L531.445 482.345L650.071 183.345Z" fill="#6A1515" fill-opacity="0.26"/>
<path d="M654.665 183.345L656.923 184.278L538.707 482.345L536.039 482.345L654.665 183.345Z" fill="#6A1515" fill-opacity="0.26"/>
<path d="M659.502 183.345L661.761 184.278L543.545 482.345L540.876 482.345L659.502 183.345Z" fill="#6A1515" fill-opacity="0.26"/>
<path d="M664.145 183.345L666.404 184.278L548.187 482.345L545.519 482.345L664.145 183.345Z" fill="#6A1515" fill-opacity="0.26"/>
<path d="M668.645 183.345L670.904 184.278L552.687 482.345L550.019 482.345L668.645 183.345Z" fill="#6A1515" fill-opacity="0.26"/>
<path d="M673.434 183.345L675.693 184.278L557.476 482.345L554.808 482.345L673.434 183.345Z" fill="#6A1515" fill-opacity="0.26"/>
<path d="M678.076 183.345L680.335 184.278L562.118 482.345L559.45 482.345L678.076 183.345Z" fill="#6A1515" fill-opacity="0.26"/>
<path d="M682.669 183.345L684.928 184.278L566.711 482.345L564.043 482.345L682.669 183.345Z" fill="#6A1515" fill-opacity="0.26"/>
<path d="M687.262 183.345L689.521 184.278L571.305 482.345L568.637 482.345L687.262 183.345Z" fill="#6A1515" fill-opacity="0.26"/>
<path d="M692.1 183.345L694.359 184.278L576.142 482.345L573.474 482.345L692.1 183.345Z" fill="#6A1515" fill-opacity="0.26"/>
<path d="M696.743 183.345L699.002 184.278L580.785 482.345L578.117 482.345L696.743 183.345Z" fill="#6A1515" fill-opacity="0.26"/>
<rect x="439.883" y="33.9001" width="12.371" height="939.625" transform="rotate(22.1714 439.883 33.9001)" fill="#F82828" fill-opacity="0.38"/>
<rect x="837.579" y="194.439" width="13.0179" height="766.136" transform="rotate(22.1714 837.579 194.439)" fill="#F82828" fill-opacity="0.38"/>
<rect x="849.192" y="199.446" width="90.0334" height="745.718" transform="rotate(22.1714 849.192 199.446)" fill="#F82828" fill-opacity="0.61"/>
<rect x="861.863" y="217.315" width="5.6277" height="716.778" transform="rotate(22.1714 861.863 217.315)" fill="#6A1515" fill-opacity="0.26"/>
<rect x="947.418" y="240.978" width="106.079" height="681.386" transform="rotate(22.1714 947.418 240.978)" fill="#F82828" fill-opacity="0.61"/>
<rect x="1012.11" y="268.273" width="5.6277" height="661.751" transform="rotate(22.1714 1012.11 268.273)" fill="#6A1515" fill-opacity="0.26"/>
<path d="M933.06 232.159L948.383 238.404L674.581 910.293L659.258 904.049L933.06 232.159Z" fill="#F82828" fill-opacity="0.38"/>
<path d="M940.202 233.972L941.501 234.501L677.792 881.623L676.493 881.094L940.202 233.972Z" fill="#6A1515" fill-opacity="0.26"/>
</g>
<defs>
<clipPath id="clip0_14_51">
<rect width="1046" height="839" fill="white"/>
</clipPath>
</defs>
</svg>
