<svg width="87" height="36" viewBox="0 0 87 36" fill="none" xmlns="http://www.w3.org/2000/svg">
<path fill-rule="evenodd" clip-rule="evenodd" d="M11.9208 18.0001L1.41882 28.0662C-0.429494 29.8378 -0.479434 32.7597 1.30727 34.5924C3.09398 36.425 6.04074 36.4746 7.88906 34.703L19.7759 23.3095C22.8043 20.4067 22.8043 15.5934 19.7759 12.6907L7.88905 1.29722C6.04074 -0.474384 3.09398 -0.424865 1.30727 1.40782C-0.479435 3.24051 -0.429495 6.16236 1.41882 7.93397L11.9208 18.0001Z" fill="url(#paint0_linear_71_137)"/>
<path d="M7.88906 34.703L10.3035 32.3888C13.6326 28.648 16.4721 22.8272 11.9208 18.0001L1.41882 7.93397C-0.429495 6.16236 -0.479435 3.24051 1.30727 1.40782C3.09398 -0.424865 6.04074 -0.474384 7.88905 1.29722L19.7759 12.6907C22.8043 15.5934 22.8043 20.4067 19.7759 23.3095L10.3035 32.3888C9.49456 33.2977 8.65677 34.0838 7.88906 34.703Z" fill="url(#paint1_linear_71_137)"/>
<path fill-rule="evenodd" clip-rule="evenodd" d="M75.0775 17.9997L85.5795 7.93361C87.4278 6.162 87.4777 3.24015 85.691 1.40746C83.9043 -0.425225 80.9575 -0.474744 79.1092 1.29686L67.2224 12.6903C64.194 15.5931 64.194 20.4064 67.2224 23.3091L79.1092 34.7026C80.9575 36.4742 83.9043 36.4247 85.691 34.592C87.4777 32.7593 87.4278 29.8375 85.5795 28.0658L75.0775 17.9997Z" fill="url(#paint2_linear_71_137)"/>
<path d="M79.1092 1.29686L76.6948 3.61106C73.3657 7.35179 70.5261 13.1726 75.0775 17.9997L85.5795 28.0658C87.4278 29.8375 87.4777 32.7593 85.691 34.592C83.9043 36.4247 80.9575 36.4742 79.1092 34.7026L67.2224 23.3091C64.194 20.4064 64.194 15.5931 67.2224 12.6903L76.6948 3.61106C77.5037 2.70216 78.3415 1.91606 79.1092 1.29686Z" fill="url(#paint3_linear_71_137)"/>
<path fill-rule="evenodd" clip-rule="evenodd" d="M60.0597 1.30811C61.7919 3.05217 61.7919 5.87985 60.0597 7.62391L33.1772 34.6916C31.445 36.4357 28.6367 36.4357 26.9046 34.6916C25.1724 32.9476 25.1724 30.1199 26.9046 28.3758L53.7871 1.30811C55.5193 -0.435954 58.3276 -0.435954 60.0597 1.30811Z" fill="#FF9A9A"/>
<path fill-rule="evenodd" clip-rule="evenodd" d="M26.9044 1.30816C28.6365 -0.435903 31.4449 -0.435903 33.177 1.30816L60.0596 28.3759C61.7917 30.12 61.7917 32.9476 60.0596 34.6917C58.3274 36.4358 55.5191 36.4358 53.787 34.6917L26.9044 7.62396C25.1723 5.8799 25.1723 3.05222 26.9044 1.30816Z" fill="#FF9A9A"/>
<defs>
<linearGradient id="paint0_linear_71_137" x1="18.4718" y1="14.4001" x2="0.661867" y2="36.5331" gradientUnits="userSpaceOnUse">
<stop stop-color="#311A1A"/>
<stop offset="1" stop-color="#FF4D4D"/>
</linearGradient>
<linearGradient id="paint1_linear_71_137" x1="22.0472" y1="23.7" x2="-1.05614" y2="0.158786" gradientUnits="userSpaceOnUse">
<stop stop-color="#FF5151"/>
<stop offset="1" stop-color="#FF1D1D"/>
</linearGradient>
<linearGradient id="paint2_linear_71_137" x1="68.5265" y1="21.5997" x2="86.3364" y2="-0.533315" gradientUnits="userSpaceOnUse">
<stop stop-color="#311A1A"/>
<stop offset="1" stop-color="#FF4D4D"/>
</linearGradient>
<linearGradient id="paint3_linear_71_137" x1="64.9511" y1="12.2998" x2="88.0544" y2="35.841" gradientUnits="userSpaceOnUse">
<stop stop-color="#FF5151"/>
<stop offset="1" stop-color="#FF1D1D"/>
</linearGradient>
</defs>
</svg>
